<?xml version="1.0" standalone="no"?>
<svg xmlns="http://www.w3.org/2000/svg" xmlns:xlink="http://www.w3.org/1999/xlink" width="135pt" height="332pt" viewBox="0.00 0.00 135 332">
<g id="graph0" class="graph" transform="translate(20.84754188045912,302.26383119967215) scale(0.8565685624317849)" data-name="G">

<polygon fill="white" stroke="none" points="-4,4 -4,-328 131,-328 131,4 -4,4"/>
<!-- fa -->
<g id="node1" class="node" pointer-events="visible" data-name="fa">

<ellipse fill="none" stroke="black" cx="100" cy="-306" rx="27" ry="18"/>
<text text-anchor="middle" x="100" y="-301.8" font-family="Times,serif" font-size="14.00">fa</text>
</g>
<!-- x -->
<g id="node2" class="node" pointer-events="visible" data-name="x">

<ellipse fill="none" stroke="black" cx="73" cy="-234" rx="27" ry="18"/>
<text text-anchor="middle" x="73" y="-229.8" font-family="Times,serif" font-size="14.00">x</text>
</g>
<!-- fa&#45;&gt;x -->
<g id="edge1" class="edge" data-name="fa-&gt;x">

<path fill="none" stroke="black" d="M93.46,-288.05C90.48,-280.32 86.87,-270.96 83.52,-262.27"/>
<polygon fill="black" stroke="black" points="86.88,-261.27 80.02,-253.2 80.35,-263.79 86.88,-261.27"/>
</g>
<!-- y -->
<g id="node3" class="node" pointer-events="visible" data-name="y">

<ellipse fill="none" stroke="black" cx="27" cy="-162" rx="27" ry="18"/>
<text text-anchor="middle" x="27" y="-157.8" font-family="Times,serif" font-size="14.00">y</text>
</g>
<!-- x&#45;&gt;y -->
<g id="edge2" class="edge" data-name="x-&gt;y">

<path fill="none" stroke="black" d="M62.56,-217.12C56.97,-208.61 49.96,-197.94 43.64,-188.32"/>
<polygon fill="black" stroke="black" points="46.64,-186.52 38.23,-180.09 40.79,-190.37 46.64,-186.52"/>
</g>
<!-- z -->
<g id="node4" class="node" pointer-events="visible" data-name="z">

<ellipse fill="none" stroke="black" cx="73" cy="-90" rx="27" ry="18"/>
<text text-anchor="middle" x="73" y="-85.8" font-family="Times,serif" font-size="14.00">z</text>
</g>
<!-- y&#45;&gt;z -->
<g id="edge3" class="edge" data-name="y-&gt;z">

<path fill="none" stroke="black" d="M37.44,-145.12C43.03,-136.61 50.04,-125.94 56.36,-116.32"/>
<polygon fill="black" stroke="black" points="59.21,-118.37 61.77,-108.09 53.36,-114.52 59.21,-118.37"/>
</g>
<!-- f -->
<g id="edge4" class="edge" data-name="z-&gt;x" data-comment="f">

<path fill="none" stroke="gray" d="M73,-108.11C73,-131.92 73,-175.37 73,-204.22" stroke-dasharray="5,2"/>
<polygon fill="gray" stroke="gray" points="69.5,-204.07 73,-214.07 76.5,-204.07 69.5,-204.07"/>
</g>
<!-- z&#45;&gt;z -->
<g id="node5" class="node" pointer-events="visible" data-name="a" data-comment="z-&gt;z">

<ellipse fill="none" stroke="black" cx="100" cy="-18" rx="27" ry="18"/>
<text text-anchor="middle" x="100" y="-13.8" font-family="Times,serif" font-size="14.00">a</text>
</g>
<!-- z&#45;&gt;a -->
<g id="edge5" class="edge" data-name="z-&gt;a">

<path fill="none" stroke="black" d="M79.54,-72.05C82.52,-64.32 86.13,-54.96 89.48,-46.27"/>
<polygon fill="black" stroke="black" points="92.65,-47.79 92.98,-37.2 86.12,-45.27 92.65,-47.79"/>
</g>
<!-- f -->
<g id="edge6" class="edge" data-name="a-&gt;fa" data-comment="f">

<path fill="none" stroke="rgb(128, 128, 128)" d="M103.65,-36.09C105.68,-46.43 107.98,-59.91 109,-72 115.72,-151.72 115.72,-172.28 109,-252 108.32,-260.03 107.08,-268.67 105.73,-276.6" stroke-dasharray="5,2"/>
<polygon fill="gray" stroke="gray" points="102.29,-275.95 103.93,-286.42 109.17,-277.21 102.29,-275.95"/>
</g>
</g>
</svg>