<?xml version="1.0" standalone="no"?>
<svg xmlns="http://www.w3.org/2000/svg" xmlns:xlink="http://www.w3.org/1999/xlink" width="427pt" height="234pt" viewBox="0.00 0.00 426.74 233.94">
<g id="graph0" class="graph" transform="translate(4,229.94000244140625) scale(1)" data-name="G">

<polygon fill="white" stroke="none" points="-4,4 -4,-229.94 422.74,-229.94 422.74,4 -4,4"/>
<!-- 0 -->
<g id="node1" class="node" pointer-events="visible" data-name="0">

<ellipse fill="none" stroke="black" cx="76.5" cy="-18" rx="27" ry="18"/>
<text text-anchor="middle" x="76.5" y="-13.8" font-family="Times,serif" font-size="14.00">0</text>
</g>
<!-- 1 -->
<g id="node2" class="node" pointer-events="visible" data-name="1">

<ellipse fill="none" stroke="black" cx="76.5" cy="-122.2" rx="27" ry="18"/>
<text text-anchor="middle" x="76.5" y="-118" font-family="Times,serif" font-size="14.00">1</text>
</g>
<!-- 0&#45;&gt;1 -->
<g id="edge1" class="edge" data-name="0-&gt;1">

<path fill="none" stroke="black" d="M76.5,-36.15C76.5,-51.67 76.5,-74.31 76.5,-92.47"/>
<polygon fill="black" stroke="black" points="73,-92.4 76.5,-102.4 80,-92.4 73,-92.4"/>
</g>
<!-- 2 -->
<g id="node3" class="node" pointer-events="visible" data-name="2">

<ellipse fill="none" stroke="black" cx="27" cy="-207.94" rx="27" ry="18"/>
<text text-anchor="middle" x="27" y="-203.74" font-family="Times,serif" font-size="14.00">2</text>
</g>
<!-- 1&#45;&gt;2 -->
<g id="edge2" class="edge" data-name="1-&gt;2">

<path fill="none" stroke="black" d="M66.72,-139.14C59.85,-151.04 50.51,-167.21 42.62,-180.88"/>
<polygon fill="black" stroke="black" points="39.65,-179.02 37.69,-189.43 45.72,-182.52 39.65,-179.02"/>
</g>
<!-- 3 -->
<g id="node4" class="node" pointer-events="visible" data-name="3">

<ellipse fill="none" stroke="black" cx="166.74" cy="-70.1" rx="27" ry="18"/>
<text text-anchor="middle" x="166.74" y="-65.9" font-family="Times,serif" font-size="14.00">3</text>
</g>
<!-- 1&#45;&gt;3 -->
<g id="edge3" class="edge" data-name="1-&gt;3">

<path fill="none" stroke="black" d="M96.98,-110.38C108.55,-103.7 123.24,-95.22 136.15,-87.76"/>
<polygon fill="black" stroke="black" points="137.81,-90.84 144.72,-82.81 134.31,-84.78 137.81,-90.84"/>
</g>
<!-- 3&#45;&gt;0 -->
<g id="edge4" class="edge" data-name="3-&gt;0">

<path fill="none" stroke="black" d="M146.26,-58.28C134.69,-51.6 120,-43.12 107.09,-35.66"/>
<polygon fill="black" stroke="black" points="108.93,-32.68 98.52,-30.71 105.43,-38.74 108.93,-32.68"/>
</g>
<!-- 4 -->
<g id="node5" class="node" pointer-events="visible" data-name="4">

<ellipse fill="none" stroke="black" cx="391.74" cy="-70.1" rx="27" ry="18"/>
<text text-anchor="middle" x="391.74" y="-65.9" font-family="Times,serif" font-size="14.00">4</text>
</g>
<!-- 5 -->
<g id="node6" class="node" pointer-events="visible" data-name="5">

<ellipse fill="none" stroke="black" cx="265.74" cy="-70.1" rx="27" ry="18"/>
<text text-anchor="middle" x="265.74" y="-65.9" font-family="Times,serif" font-size="14.00">5</text>
</g>
<!-- 4&#45;&gt;5 -->
<g id="edge5" class="edge" data-name="4-&gt;5">

<path fill="none" stroke="black" d="M364.4,-70.1C346.82,-70.1 323.71,-70.1 304.27,-70.1"/>
<polygon fill="black" stroke="black" points="304.54,-66.6 294.54,-70.1 304.54,-73.6 304.54,-66.6"/>
</g>
<!-- 5&#45;&gt;3 -->
<g id="edge6" class="edge" data-name="5-&gt;3">

<path fill="none" stroke="black" d="M238.43,-70.1C228.15,-70.1 216.26,-70.1 205.15,-70.1"/>
<polygon fill="black" stroke="black" points="205.48,-66.6 195.48,-70.1 205.48,-73.6 205.48,-66.6"/>
</g>
</g>
</svg>